<svg width="17" height="16" viewBox="0 0 17 16" fill="none" xmlns="http://www.w3.org/2000/svg">
<path fill-rule="evenodd" clip-rule="evenodd" d="M8.31684 0.380982L9.43971 0.380982C9.73836 0.380982 9.98046 0.623085 9.98046 0.921734C9.98046 1.22038 9.73836 1.46249 9.43971 1.46249H8.35821C6.6435 1.46249 5.41187 1.46363 4.47458 1.58965C3.55285 1.71357 2.99715 1.94926 2.58643 2.35999C2.1757 2.77071 1.94001 3.3264 1.81609 4.24814C1.69008 5.18543 1.68893 6.41706 1.68893 8.13177C1.68893 9.84647 1.69008 11.0781 1.81609 12.0154C1.94001 12.9371 2.1757 13.4928 2.58643 13.9035C2.99715 14.3143 3.55285 14.55 4.47458 14.6739C5.41187 14.7999 6.6435 14.801 8.35821 14.801C10.0729 14.801 11.3045 14.7999 12.2418 14.6739C13.1636 14.55 13.7193 14.3143 14.13 13.9035C14.5407 13.4928 14.7764 12.9371 14.9003 12.0154C15.0263 11.0781 15.0275 9.84647 15.0275 8.13177V7.05026C15.0275 6.75161 15.2696 6.50951 15.5682 6.50951C15.8669 6.50951 16.109 6.75161 16.109 7.05026V8.17313C16.109 9.83749 16.109 11.1418 15.9722 12.1595C15.8321 13.2012 15.5399 14.0231 14.8947 14.6683C14.2496 15.3134 13.4276 15.6057 12.3859 15.7457C11.3683 15.8826 10.0639 15.8826 8.39957 15.8825H8.31684C6.65248 15.8826 5.34816 15.8826 4.33047 15.7457C3.28881 15.6057 2.46685 15.3134 1.82169 14.6683C1.17653 14.0231 0.884277 13.2012 0.74423 12.1595C0.607405 11.1418 0.607413 9.83749 0.607422 8.17314V8.0904C0.607413 6.42604 0.607405 5.12172 0.74423 4.10403C0.884277 3.06237 1.17653 2.24041 1.82169 1.59525C2.46685 0.950088 3.28881 0.657837 4.33047 0.517789C5.34816 0.380965 6.65248 0.380972 8.31684 0.380982ZM11.7978 1.12067C12.784 0.134419 14.3831 0.134419 15.3693 1.12067C16.3556 2.10692 16.3556 3.70595 15.3693 4.6922L10.576 9.4855C10.3083 9.75323 10.1406 9.92095 9.95348 10.0669C9.73308 10.2388 9.4946 10.3862 9.24226 10.5065C9.02803 10.6086 8.80303 10.6835 8.44385 10.8032L6.34968 11.5013C5.96304 11.6302 5.53678 11.5295 5.2486 11.2414C4.96042 10.9532 4.85979 10.5269 4.98867 10.1403L5.68672 8.04613C5.80642 7.68695 5.88141 7.46195 5.98351 7.24771C6.10376 6.99538 6.25115 6.75689 6.42307 6.53649C6.56903 6.34935 6.73674 6.18166 7.00448 5.91396L11.7978 1.12067ZM14.6046 1.88541C14.0407 1.32151 13.1264 1.32151 12.5625 1.88541L12.291 2.15695C12.3073 2.22607 12.3302 2.30842 12.3621 2.40027C12.4654 2.69809 12.661 3.09031 13.0303 3.45966C13.3997 3.82901 13.7919 4.02455 14.0897 4.12787C14.1816 4.15974 14.2639 4.18263 14.333 4.199L14.6046 3.92746C15.1685 3.36356 15.1685 2.44931 14.6046 1.88541ZM13.481 5.05098C13.109 4.891 12.6757 4.63451 12.2656 4.2244C11.8555 3.81429 11.599 3.38095 11.439 3.00893L7.79403 6.6539C7.49372 6.9542 7.37594 7.0733 7.27584 7.20164C7.15224 7.36011 7.04627 7.53157 6.95981 7.71299C6.88979 7.85992 6.83593 8.01852 6.70163 8.42143L6.39023 9.35562L7.13435 10.0997L8.06855 9.78834C8.47145 9.65404 8.63006 9.60018 8.77698 9.53016C8.9584 9.4437 9.12987 9.33773 9.28834 9.21413C9.41667 9.11403 9.53577 8.99625 9.83608 8.69595L13.481 5.05098Z" fill="white"/>
</svg>
