<svg width="30" height="30" viewBox="0 0 30 30" fill="none" xmlns="http://www.w3.org/2000/svg">
<g opacity="1">
<path fill-rule="evenodd" clip-rule="evenodd" d="M6.5625 12.5682V10C6.5625 5.3401 10.3401 1.5625 15 1.5625C19.6599 1.5625 23.4375 5.3401 23.4375 10V12.5682C24.831 12.6724 25.7384 12.935 26.4016 13.5984C27.5 14.6967 27.5 16.4645 27.5 20C27.5 23.5355 27.5 25.3032 26.4016 26.4016C25.3032 27.5 23.5355 27.5 20 27.5H10C6.46446 27.5 4.6967 27.5 3.59835 26.4016C2.5 25.3032 2.5 23.5355 2.5 20C2.5 16.4645 2.5 14.6967 3.59835 13.5984C4.26164 12.935 5.16906 12.6724 6.5625 12.5682ZM8.4375 10C8.4375 6.37564 11.3756 3.4375 15 3.4375C18.6244 3.4375 21.5625 6.37564 21.5625 10V12.5045C21.0837 12.5 20.5644 12.5 20 12.5H10C9.43561 12.5 8.91626 12.5 8.4375 12.5045V10ZM17.5 20C17.5 21.3807 16.3807 22.5 15 22.5C13.6192 22.5 12.5 21.3807 12.5 20C12.5 18.6192 13.6192 17.5 15 17.5C16.3807 17.5 17.5 18.6192 17.5 20Z" fill="white"/>
</g>
</svg>