<svg width="143" height="74" viewBox="0 0 143 74" fill="none" xmlns="http://www.w3.org/2000/svg">
<g clip-path="url(#clip0_750_795)">
<path d="M0.63916 39.002V38.0346H10.5877C10.7063 38.5642 10.779 39.0727 10.0711 39.1052C8.94423 39.1568 8.42577 40.1778 8.7051 41.2331C9.26757 43.3686 9.86639 45.4927 10.4633 47.6187C10.9052 49.1921 11.3663 50.7617 11.9479 52.3581C12.1871 51.559 12.4319 50.7617 12.6673 49.9626C13.4191 47.4065 14.1825 44.8541 14.9133 42.2942C15.296 40.931 14.3394 39.3977 12.9447 39.111C12.7361 39.0689 12.5276 39.0135 12.2712 38.9523V38.0308H22.1681V38.9408C21.9232 38.9982 21.6553 39.0708 21.3837 39.132C20.3353 39.3366 19.834 39.935 20.0177 41.0152C20.216 42.0387 20.4715 43.0504 20.7829 44.0454C21.5482 46.6895 22.3307 49.3279 23.1094 51.9681C23.1419 52.0809 23.2031 52.1842 23.3179 52.4461C23.6106 51.5208 23.8765 50.7254 24.1119 49.9358C24.8695 47.3778 25.6207 44.8184 26.3656 42.2579C26.4718 41.9172 26.5398 41.5658 26.5684 41.2102C26.6449 39.8891 26.1857 39.3423 24.8618 39.132C24.5806 39.088 24.3051 39.0249 23.999 38.9657V38.048H31.7607V38.9465C31.5186 39.0238 31.2702 39.08 31.0184 39.1148C29.3654 39.2218 28.5064 40.2619 28.0568 41.6996C26.7463 45.9057 25.4702 50.1117 24.1769 54.3178C23.9186 55.1571 23.6374 55.9887 23.3581 56.8529C22.3364 56.8529 21.3569 56.8911 20.3831 56.8242C20.1688 56.8089 19.8761 56.4571 19.7938 56.2029C18.8105 53.1936 17.8615 50.1748 16.8992 47.1579C16.6236 46.2173 16.2711 45.301 15.8451 44.4182C15.5963 45.16 15.3285 45.8942 15.0989 46.6417C14.113 49.8485 13.1354 53.0547 12.166 56.2602C12.0378 56.6789 11.8542 56.893 11.3721 56.8624C10.6584 56.8185 9.93909 56.8338 9.22356 56.8624C8.84093 56.8758 8.63813 56.7726 8.50804 56.3673C6.95645 51.4902 5.36469 46.6169 3.82077 41.7474C3.3176 40.1548 2.49111 39.0058 0.63916 39.002Z" fill="white"/>
<path d="M63.8844 27.3628C63.674 26.6612 63.8213 26.3094 64.5636 26.166C65.5623 25.9748 66.0941 25.2502 66.0941 24.2121C66.1075 20.5605 66.1133 16.9108 66.0941 13.2591C66.0941 11.9036 65.304 11.2919 63.8423 11.4467V10.5386C65.4379 9.99562 67.0105 9.47368 68.5736 8.92307C68.9242 8.77544 69.2631 8.60161 69.5876 8.40306C69.8975 8.23672 70.1807 7.99009 70.5442 8.32466C70.9077 8.65924 71.1583 8.96131 71.0416 9.48898C70.8331 10.4315 70.659 11.3817 70.4677 12.33L70.636 12.4084C70.7449 12.2596 70.8458 12.1052 70.9383 11.9457C72.7214 8.48143 76.7295 7.14505 80.1904 8.90777C81.9582 9.81016 82.7445 11.4371 82.842 13.2935C82.9932 16.1728 82.9415 19.0597 82.9741 21.9446C82.9741 22.6597 82.9741 23.3766 82.9741 24.0917C82.9741 25.2713 83.5155 26.0035 84.6749 26.2157C85.4401 26.3495 85.4784 26.7224 85.3005 27.3628H75.5548V26.4623C75.8264 26.3916 76.0981 26.3228 76.366 26.2501C76.8001 26.154 77.1879 25.9115 77.4641 25.5633C77.7404 25.2152 77.8884 24.7826 77.8831 24.3383C77.8946 20.9256 77.929 17.513 77.8716 14.1023C77.8295 11.5308 75.6791 9.99944 73.3891 10.8081C72.113 11.2593 71.1526 12.72 71.1373 14.4043C71.1105 17.6736 71.12 20.9429 71.1373 24.2121C71.1373 25.3267 71.7342 26.0035 72.8419 26.2769C73.0657 26.3323 73.2858 26.4107 73.5077 26.4681V27.3628H63.8844Z" fill="white"/>
<path d="M42.7671 53.7096C41.9368 54.5432 41.3035 55.4035 40.4713 55.9713C38.2214 57.5008 35.7649 57.7799 33.3008 56.5315C31.4507 55.5928 30.6606 53.2297 31.2785 51.2376C31.8965 49.2454 33.471 48.1786 35.2809 47.5687C37.3643 46.8595 39.5358 46.3987 41.6709 45.8328C41.8278 45.7926 41.9904 45.7697 42.2008 45.7276C42.1874 43.9305 42.3788 42.1467 41.8641 40.3974C41.7337 39.8713 41.4241 39.4071 40.9884 39.0844C40.5526 38.7616 40.0181 38.6006 39.4765 38.629C38.1736 38.6385 37.4734 39.1394 37.1654 40.4127C36.953 41.2864 36.909 42.2003 36.6966 43.0721C36.381 44.3626 35.3134 44.9189 33.9952 44.5576C32.6771 44.1962 32.04 43.1256 32.3518 41.8542C32.6637 40.5829 33.4691 39.6728 34.5902 39.0362C36.0707 38.1996 37.7359 37.7437 39.4363 37.7094C40.6888 37.6531 41.9439 37.6946 43.1899 37.8336C45.4857 38.13 47.0297 39.7283 47.154 42.0397C47.2937 44.6302 47.2593 47.2284 47.2918 49.8247C47.3052 50.8265 47.2918 51.8283 47.2918 52.8301C47.2918 54.5508 47.6744 55.0632 49.2968 55.5297C49.4651 56.4856 49.4116 56.5429 48.5315 56.8871C47.4171 57.336 46.1828 57.392 45.0323 57.0458C43.7141 56.6634 42.9986 55.7897 42.8551 54.4342C42.8341 54.2067 42.8016 53.983 42.7671 53.7096ZM42.1549 46.6893C40.9228 47.1137 39.7692 47.4081 38.7112 47.8976C36.9186 48.7273 36.0462 50.1918 36.1476 52.1897C36.2643 54.4839 38.1373 55.7878 40.1155 54.8357C41.2423 54.2946 42.0286 53.2909 42.1243 52.0558C42.2601 50.36 42.1549 48.6432 42.1549 46.6893Z" fill="white"/>
<path d="M97.1928 16.249C97.2349 14.5093 97.321 12.7523 96.8503 11.0297C96.5174 9.81185 95.6106 9.13696 94.3804 9.17329C93.0833 9.21153 92.3927 9.76978 92.0999 11.0966C91.9488 11.7906 91.9086 12.5075 91.7823 13.2092C91.5202 14.7387 90.4604 15.4766 89.0255 15.121C87.2596 14.6832 86.7029 12.867 87.7991 11.2228C88.7959 9.72964 90.3073 9.05858 91.9431 8.63989C94.1107 8.08736 96.3127 7.94206 98.5148 8.4487C100.659 8.94961 101.941 10.3605 102.113 12.5228C102.24 14.1097 102.228 15.7099 102.244 17.3025C102.265 19.3558 102.244 21.4072 102.244 23.4605C102.244 24.8237 102.576 25.7777 104.291 26.0243C104.453 27.0529 104.398 27.114 103.422 27.4677C102.431 27.8357 101.355 27.9094 100.323 27.68C98.7539 27.3377 98.0021 26.4698 97.8069 24.8887C97.762 24.6985 97.6979 24.5134 97.6156 24.3361C97.4578 24.4517 97.3146 24.5859 97.189 24.7357C95.4499 27.4295 92.2147 28.2592 89.4712 27.5863C87.7704 27.1676 86.5766 26.1122 86.1959 24.3553C85.7712 22.3861 86.2495 20.6654 87.8929 19.3845C89.3316 18.2641 91.0343 17.6906 92.7619 17.2241C94.1968 16.8474 95.6489 16.5893 97.1928 16.249ZM97.1144 17.3579C96.33 17.5491 95.5838 17.6867 94.8683 17.9123C92.3008 18.7134 90.998 20.3977 91.1204 22.7225C91.239 24.9995 92.9551 26.2595 94.9467 25.445C95.5311 25.2202 96.0408 24.8363 96.4182 24.3369C96.7955 23.8375 97.0254 23.2425 97.0818 22.6193C97.233 20.9292 97.1144 19.2143 97.1144 17.3579Z" fill="white"/>
<path d="M102.037 37.5718C107.352 37.7209 110.903 41.2043 111.383 46.221C111.553 47.9952 111.433 49.7407 110.832 51.425C109.684 54.6216 107.388 56.5335 104.084 57.107C101.184 57.6098 98.5591 56.8814 96.3379 54.8797C94.5701 53.2871 93.7149 51.2472 93.4145 48.9396C93.1333 46.7811 93.3304 44.6705 94.2391 42.6649C95.5458 39.78 97.8359 38.2027 100.918 37.6941C101.362 37.6272 101.813 37.5966 102.037 37.5718ZM106.191 47.8709C106.045 46.8729 105.875 45.0987 105.506 43.3666C105.209 41.9748 104.672 40.6422 103.56 39.627C102.449 38.6118 100.926 38.6596 100.078 39.8851C99.6216 40.5482 99.2825 41.2848 99.0756 42.0627C98.4232 44.5863 98.5246 47.1559 98.8843 49.7101C99.1196 51.3849 99.5157 53.0367 100.526 54.4495C101.174 55.3558 101.984 56.0708 103.204 55.8892C104.352 55.719 104.909 54.8759 105.32 53.8875C106.024 52.2165 106.099 50.4328 106.191 47.8709Z" fill="white"/>
<path d="M16.2238 23.7607C15.9164 24.493 15.4641 25.1557 14.894 25.7089C14.324 26.2622 13.6479 26.6946 12.9064 26.9803C9.59661 28.3186 6.38249 28.1675 3.42664 25.9899C1.60338 24.6516 0.685063 22.7398 0.271818 20.5718C-0.25813 17.7843 -0.0629857 15.0771 1.30111 12.542C3.1014 9.18863 6.05916 7.96697 9.70758 8.19256C11.9096 8.33022 13.8477 9.14849 15.185 10.9896C15.7214 11.7103 16.0913 12.5409 16.2679 13.4216C16.4446 14.3023 16.4236 15.2111 16.2066 16.0828C15.9464 17.2413 15.25 17.7843 14.0773 17.7862H5.27667C5.28822 19.2376 5.52774 20.6782 5.98646 22.0554C6.38249 23.2732 6.94305 24.3897 7.9245 25.2558C9.5067 26.6553 12.916 26.8445 14.5575 24.3993C14.9784 23.7722 15.4184 23.5141 16.2238 23.7607ZM11.6322 16.4957C11.6322 15.6564 11.6973 14.8534 11.6169 14.0658C11.4887 12.8135 11.2745 11.567 10.5092 10.5021C9.44548 9.0204 7.44812 8.9726 6.47432 10.4466C5.25371 12.2858 5.26328 14.3812 5.26711 16.4957H11.6322Z" fill="white"/>
<path d="M46.1228 23.7456C45.8167 24.478 45.3667 25.1416 44.7995 25.6972C44.2324 26.2528 43.5595 26.6892 42.8207 26.9805C39.5932 28.3188 36.4269 28.1888 33.5074 26.145C31.2919 24.5964 30.3468 22.2945 30.0024 19.6964C29.7183 17.597 29.9684 15.46 30.7294 13.4829C31.3158 11.9492 32.3455 10.6246 33.6875 9.67744C35.0294 8.73031 36.623 8.20352 38.2654 8.1641C40.6913 8.10292 42.9374 8.59809 44.6325 10.4698C46.1439 12.135 46.6202 14.1157 46.0367 16.3028C45.7689 17.3027 45.0801 17.7864 44.0279 17.7883C41.2806 17.7883 38.5339 17.7883 35.7879 17.7883C35.3689 17.7883 35.0838 17.8399 35.1412 18.3619C35.3536 20.2374 35.675 22.0766 36.5952 23.7686C38.2807 26.8677 42.4036 27.2099 44.4775 24.3574C44.9137 23.7495 45.3576 23.5564 46.1228 23.7456ZM35.1355 16.4806H41.4489C41.4489 15.4138 41.5714 14.3623 41.4126 13.3548C41.269 12.3967 40.952 11.4729 40.4771 10.6285C39.4363 8.83706 37.1443 8.95559 36.1552 10.7718C35.1948 12.5441 35.1756 14.4655 35.1355 16.4902V16.4806Z" fill="white"/>
<path d="M114.955 27.3629H105.311C105.15 26.7473 105.119 26.3286 105.934 26.1756C106.971 25.9844 107.549 25.1853 107.549 24.1223C107.557 18.3026 107.557 12.4823 107.549 6.66141C107.549 4.98855 107.013 4.40735 105.328 4.1091C105.123 3.18377 105.137 3.19142 106.057 3.027C107.886 2.67879 109.649 2.04318 111.28 1.14383C111.536 1.00809 112.011 0.887645 112.158 1.01765C112.445 1.27001 112.732 1.70591 112.732 2.06342C112.701 9.25961 112.627 16.4558 112.569 23.6539C112.554 25.3459 112.923 25.8143 114.547 26.2578C115.018 26.3897 115.026 26.407 114.955 27.3629Z" fill="white"/>
<path d="M47.7066 11.4524C47.5842 10.4162 47.6148 10.508 48.5426 10.2059C50.1918 9.67057 51.795 9.02627 53.4212 8.39727C53.779 8.25771 54.0737 8.01491 54.4486 8.35522C54.8236 8.69553 54.9843 9.03966 54.8772 9.55012C54.6553 10.5959 54.4716 11.6532 54.2803 12.7028C54.2458 12.8939 54.2439 13.0851 54.2248 13.2897L54.4314 13.3547C54.5271 13.1425 54.6227 12.9322 54.7145 12.7161C55.2885 11.2421 55.9371 9.81396 57.2973 8.85804C58.6365 7.92314 60.8214 7.90211 62.0803 8.87715C63.0062 9.59027 63.2779 10.5634 63.0368 11.6818C62.8092 12.7161 62.2104 13.2553 61.1141 13.4025C60.3163 13.5134 59.7041 13.1348 59.178 12.5785C58.9656 12.3529 58.7628 12.1177 58.5409 11.9036C57.5575 10.9477 56.5435 11.0987 55.8624 12.3127C55.2445 13.4216 55.0283 14.6375 55.0188 15.8841C54.9977 18.5607 55.0188 21.2258 55.0188 23.8985C55.0188 25.2368 55.631 25.9767 56.9319 26.2367C57.7852 26.4088 57.7967 26.4279 57.6054 27.3532H47.7697C47.5287 26.4508 47.5478 26.4164 48.403 26.1889C49.3749 25.9327 49.9335 25.3018 49.9335 24.2981C49.9507 20.5776 49.9565 16.8572 49.9335 13.1367C49.9106 11.8768 49.1223 11.2899 47.7066 11.4524Z" fill="white"/>
<path d="M122.667 56.8052H112.718C112.527 56.2011 112.579 55.8264 113.338 55.6371C114.536 55.3369 114.922 54.7443 114.924 53.513C114.924 50.0067 114.924 46.5016 114.924 42.9979C114.924 41.3556 114.35 40.8012 112.741 40.8776C112.502 39.9523 112.577 39.958 113.447 39.6732C115.136 39.1187 116.793 38.4649 118.46 37.8359C118.785 37.7135 119.122 37.4019 119.401 37.8072C119.625 38.1303 119.894 38.5528 119.856 38.9008C119.736 40.0077 119.474 41.0994 119.282 42.1987C119.267 42.3813 119.267 42.5648 119.282 42.7474L119.474 42.7857C119.612 42.3482 119.784 41.9224 119.99 41.5124C120.547 40.5775 121.039 39.5661 121.769 38.7842C123.109 37.3503 125.452 37.2031 127.021 38.2775C127.786 38.809 128.276 39.958 128.09 40.8337C127.809 42.149 127.325 42.6499 126.128 42.8564C125.33 42.9921 124.727 42.6059 124.195 42.0725C123.945 41.8202 123.719 41.5391 123.461 41.2925C122.546 40.4188 121.574 40.5488 120.914 41.6577C120.254 42.7665 120.026 44.0666 120.013 45.3609C119.984 47.984 120.013 50.6089 120.013 53.232C120.013 54.7098 120.57 55.4822 122.03 55.7174C122.82 55.8244 122.793 56.203 122.667 56.8052Z" fill="white"/>
<path d="M130.432 56.8241H129.529C129.451 55.0576 129.372 53.314 129.294 51.5837C129.868 51.3926 130.145 51.5035 130.383 52.0158C131.408 54.2412 133.139 55.6101 135.577 56.0135C136.761 56.2047 137.945 55.6216 138.426 54.6752C138.98 53.5816 138.839 52.3007 137.802 51.4365C136.765 50.5724 135.506 49.9071 134.383 49.1423C133.117 48.2648 131.764 47.4656 130.656 46.4141C129.166 45.0032 128.858 43.1257 129.466 41.1948C130.105 39.1663 131.619 38.088 133.689 37.698C135.185 37.417 136.558 37.7554 137.926 38.3174C138.322 38.4819 138.728 38.7247 139.133 38.7342C139.539 38.7438 139.966 38.543 140.364 38.3748C140.722 38.2016 141.071 38.0101 141.41 37.8012C141.469 38.4914 141.515 38.9369 141.548 39.3823C141.632 40.6059 141.712 41.8295 141.791 43.0149C141.083 43.2844 140.762 43.0149 140.511 42.4413C139.962 41.1967 139.172 40.105 137.955 39.4531C137.285 39.1074 136.551 38.9024 135.799 38.8509C134.703 38.7706 133.901 39.3441 133.442 40.365C133.214 40.817 133.143 41.3322 133.242 41.8287C133.341 42.3252 133.603 42.7744 133.987 43.1047C134.85 43.9039 135.875 44.531 136.841 45.2077C138.295 46.2382 139.876 47.1196 141.19 48.3049C143.103 50.0256 143.505 52.511 142.376 54.5414C141.313 56.4437 139.52 57.1893 137.435 57.3308C136.214 57.4016 134.997 57.1371 133.916 56.566C133.513 56.3614 133.111 56.1454 132.692 55.9753C131.534 55.5088 131.025 55.7038 130.432 56.8241Z" fill="white"/>
<path d="M60.039 56.8052H50.1192C50.0178 56.2316 49.9528 55.8186 50.7544 55.637C51.9444 55.3675 52.3557 54.7079 52.3557 53.446C52.3557 49.9397 52.3557 46.4347 52.3557 42.9309C52.3557 41.3708 51.6995 40.7686 50.1556 40.891C49.9642 39.8853 49.9834 39.9733 50.9304 39.6655C52.5796 39.1282 54.1828 38.4763 55.8147 37.8626C56.1553 37.7345 56.4499 37.421 56.8421 37.7976C57.2343 38.1742 57.416 38.5011 57.2783 39.0498C57.043 40.0421 56.8823 41.0496 56.7043 42.0534C56.6642 42.2732 56.6584 42.4988 56.6374 42.7225L56.8421 42.7894C56.9301 42.5982 57.0334 42.4223 57.1023 42.2312C57.6763 40.759 58.298 39.3213 59.6545 38.3558C61.0109 37.3904 63.0982 37.3502 64.4374 38.2794C64.8516 38.5822 65.1681 38.9995 65.3479 39.4798C65.5277 39.9602 65.563 40.4826 65.4495 40.9827C65.1701 42.1929 64.6727 42.6919 63.5363 42.864C62.7347 42.9844 62.1301 42.5925 61.6001 42.0514C61.384 41.8297 61.1907 41.5869 60.9688 41.3708C59.972 40.3958 58.9849 40.5258 58.2904 41.7532C57.6418 42.9003 57.4295 44.1679 57.4141 45.4564C57.3835 48.0317 57.4141 50.607 57.4141 53.1841C57.4141 54.6677 57.9498 55.4554 59.3847 55.7039C60.1289 55.8225 60.2035 56.136 60.039 56.8052Z" fill="white"/>
<path d="M73.2056 42.7455C73.5289 42.019 73.8293 41.281 74.1832 40.5698C74.9657 38.9964 76.1079 37.8416 77.9464 37.6275C79.4961 37.4363 81.5949 38.029 81.8665 40.1568C81.9909 41.1376 81.4112 42.3249 80.6019 42.6747C79.6186 43.0992 78.5969 42.8334 77.8699 41.9712C77.6786 41.7532 77.4873 41.5468 77.2826 41.3479C76.2973 40.392 75.2852 40.5392 74.6041 41.759C73.9747 42.8908 73.77 44.1373 73.7528 45.401C73.7164 47.9744 73.7413 50.5515 73.7413 53.1268C73.7413 54.6888 74.254 55.3522 75.7367 55.7193C76.502 55.9104 76.502 55.9104 76.3604 56.8014H66.4865C66.3277 56.2278 66.2952 55.8263 67.0834 55.639C68.2773 55.3522 68.7096 54.6983 68.7116 53.4633C68.7116 49.934 68.7116 46.4048 68.7116 42.8755C68.7116 41.3938 67.9903 40.7476 66.5305 40.8833C66.2531 39.9484 66.3392 39.9599 67.2537 39.6578C68.9239 39.1149 70.5578 38.4591 72.2031 37.8359C72.5264 37.7154 72.7904 37.4535 73.1597 37.7766C73.5289 38.0997 73.7336 38.4419 73.6303 38.9543C73.416 40.002 73.2285 41.0573 73.0353 42.105C72.999 42.2962 72.9913 42.4874 72.9722 42.6786L73.2056 42.7455Z" fill="white"/>
<path d="M28.9445 25.1987C29.1358 26.124 29.0229 26.4108 28.1792 26.9022C26.0747 28.1219 22.9581 27.946 21.1712 26.4873C19.9239 25.4683 19.5833 24.0401 19.5699 22.5374C19.5355 18.9374 19.5584 15.3374 19.5584 11.7355V10.8006H17.4654C17.2148 10.0894 17.3755 9.76246 18.0643 9.52921C19.964 8.88301 21.2439 7.49883 22.1814 5.77817C22.4416 5.30021 22.6119 4.77446 22.8625 4.29267C22.9091 4.20837 22.9729 4.13473 23.0496 4.07646C23.1264 4.01819 23.2145 3.97657 23.3083 3.95427C23.7374 3.92371 24.168 3.9186 24.5977 3.93898V9.13537H28.7704V10.7796H24.6781C24.6532 11.051 24.6207 11.2346 24.6207 11.42C24.6207 15.3521 24.6207 19.286 24.6207 23.2219C24.6207 24.6959 25.4625 25.7512 26.7768 25.7474C27.4981 25.7436 28.2175 25.3918 28.9445 25.1987Z" fill="white"/>
<path d="M82.7808 40.864V39.9807C83.659 39.7723 84.5409 39.6423 85.3617 39.3498C86.5479 38.9254 87.6958 38.3939 88.8475 37.8834C89.6434 37.5278 90.3225 37.9637 90.3111 38.8393C90.2447 43.6993 90.181 48.5585 90.1197 53.4172C90.1044 54.7555 90.5636 55.4265 91.8263 55.6789C92.6203 55.8395 92.5437 56.241 92.4423 56.803H82.8133C82.6622 56.2295 82.6603 55.828 83.4313 55.633C84.6347 55.329 85.0575 54.6771 85.0594 53.4458C85.0594 50.132 85.0594 46.8181 85.0594 43.5042C85.0632 41.7205 84.5849 41.1641 82.7808 40.864Z" fill="white"/>
<path d="M87.3518 35.4057C86.6416 35.3934 85.9638 35.1061 85.4613 34.6044C84.9588 34.1026 84.6708 33.4255 84.6581 32.7157C84.6494 32.1723 84.8031 31.6387 85.0997 31.1832C85.3962 30.7277 85.8221 30.371 86.3227 30.1587C86.8234 29.9465 87.376 29.8884 87.9098 29.9918C88.4437 30.0953 88.9345 30.3556 89.3195 30.7395C89.7044 31.1233 89.966 31.6133 90.0707 32.1465C90.1753 32.6798 90.1184 33.2322 89.907 33.7329C89.6957 34.2336 89.3397 34.66 88.8844 34.9573C88.4292 35.2546 87.8956 35.4094 87.3518 35.4019V35.4057Z" fill="white"/>
<path d="M137.215 70.1154C137.215 71.1612 137.236 72.2184 137.196 73.2566C137.196 73.4592 136.951 73.6542 136.813 73.8511C136.683 73.66 136.442 73.4554 136.43 73.2546C136.4 71.6124 136.413 69.9701 136.413 68.3049C137.002 68.1137 137.37 68.1538 137.603 68.7962C138.034 69.9816 138.539 71.1402 139.019 72.3083C139.08 72.4555 139.172 72.5912 139.329 72.8818C139.52 72.4995 139.685 72.2203 139.803 71.9259C140.234 70.8935 140.679 69.8649 141.058 68.8115C141.265 68.238 141.571 68.0583 142.206 68.3068C142.206 70.0275 142.206 71.7481 142.191 73.4898C142.191 73.6103 141.98 73.7288 141.869 73.8492C141.73 73.7001 141.487 73.5586 141.472 73.4038C141.431 72.5702 141.45 71.7347 141.45 70.8993C141.473 70.5894 141.414 70.2792 141.28 69.9988C141.116 70.3639 140.942 70.7234 140.788 71.0904C140.471 71.8552 140.186 72.6467 139.832 73.4038C139.744 73.595 139.47 73.8263 139.292 73.8186C139.114 73.811 138.864 73.5625 138.78 73.3636C138.384 72.4479 138.039 71.5091 137.666 70.5838C137.58 70.4013 137.482 70.2244 137.373 70.0542L137.215 70.1154Z" fill="white"/>
<path d="M24.1747 68.2932C24.7735 68.0561 25.0662 68.2511 25.2748 68.8189C25.6899 69.966 26.1759 71.0691 26.6389 72.1895C26.7173 72.3807 26.8302 72.5546 26.9986 72.9103C27.2415 72.3826 27.4233 72.0174 27.5725 71.6389C27.9551 70.7174 28.3626 69.8016 28.6936 68.861C28.9022 68.2645 29.2178 68.0484 29.9181 68.3065V71.2412C29.9181 71.9333 29.9429 72.6254 29.8989 73.3136C29.8874 73.5048 29.6598 73.6731 29.5335 73.8509C29.3977 73.6788 29.1509 73.5106 29.1509 73.3328C29.1145 72.2641 29.1317 71.1934 28.9902 70.0559C28.87 70.1937 28.7654 70.3444 28.6783 70.5051C28.2957 71.4267 27.9571 72.3635 27.5534 73.2735C27.4501 73.5068 27.1707 73.6559 26.9794 73.8471C26.7881 73.6444 26.5107 73.4762 26.4055 73.2353C25.998 72.2985 25.6402 71.3387 25.2576 70.3885C25.22 70.2952 25.1639 70.2104 25.0925 70.1394C25.0211 70.0684 24.936 70.0127 24.8424 69.9756V71.3578C24.8424 72.048 24.8577 72.7401 24.8156 73.4284C24.8156 73.5737 24.5803 73.7037 24.4521 73.8413C24.3412 73.7209 24.1365 73.6004 24.1345 73.4781C24.1116 71.9295 24.1173 70.3809 24.1192 68.8323C24.1307 68.6583 24.1613 68.4671 24.1747 68.2932Z" fill="white"/>
<path d="M129.736 73.9369C127.891 73.7973 126.893 72.7152 126.833 70.9602C126.78 69.3848 128.222 68.0389 129.766 68.079C130.524 68.1078 131.241 68.4262 131.771 68.9684C132.3 69.5106 132.601 70.2352 132.611 70.9927C132.617 72.5891 131.282 73.956 129.736 73.9369ZM129.816 68.8533C129.53 68.8364 129.243 68.8781 128.973 68.9759C128.704 69.0738 128.457 69.2257 128.248 69.4222C128.04 69.6188 127.873 69.856 127.76 70.1191C127.646 70.3823 127.587 70.6659 127.587 70.9525C127.57 71.2368 127.61 71.5216 127.705 71.79C127.801 72.0585 127.949 72.3052 128.141 72.5154C128.333 72.7256 128.566 72.8952 128.825 73.0139C129.084 73.1327 129.364 73.1984 129.649 73.2069C129.934 73.2155 130.217 73.1669 130.483 73.0639C130.749 72.9609 130.991 72.8056 131.195 72.6073C131.4 72.4091 131.563 72.1718 131.674 71.9095C131.785 71.6473 131.842 71.3654 131.842 71.0806C131.873 69.8513 130.993 68.8896 129.816 68.8495V68.8533Z" fill="white"/>
<path d="M77.4815 70.9719C77.4837 70.5902 77.5613 70.2127 77.7097 69.861C77.858 69.5093 78.0743 69.1902 78.3462 68.9221C78.6181 68.654 78.9401 68.442 79.294 68.2984C79.6479 68.1548 80.0267 68.0823 80.4086 68.085C81.1811 68.108 81.9138 68.4321 82.4501 68.9881C82.9864 69.544 83.2837 70.2877 83.2784 71.0599C83.2421 72.6429 81.9392 73.9563 80.4086 73.9448C80.0191 73.9488 79.6327 73.8743 79.2726 73.7257C78.9125 73.5771 78.5861 73.3575 78.3129 73.08C78.0396 72.8025 77.8252 72.4728 77.6824 72.1106C77.5395 71.7484 77.4712 71.3611 77.4815 70.9719ZM78.2582 71.035C78.2539 71.3178 78.3064 71.5986 78.4125 71.8608C78.5186 72.123 78.6762 72.3613 78.876 72.5616C79.0758 72.7619 79.3138 72.9201 79.5758 73.0269C79.8379 73.1338 80.1187 73.187 80.4017 73.1836C80.6847 73.1801 80.9642 73.12 81.2235 73.0068C81.4829 72.8937 81.7169 72.7297 81.9118 72.5245C82.1066 72.3194 82.2584 72.0774 82.3581 71.8127C82.4577 71.548 82.5033 71.266 82.4921 70.9834C82.4965 70.6978 82.4426 70.4143 82.3337 70.1501C82.2248 69.886 82.0631 69.6468 81.8587 69.4472C81.6543 69.2475 81.4113 69.0916 81.1445 68.9889C80.8778 68.8862 80.5929 68.8388 80.3072 68.8498C79.123 68.8727 78.2448 69.8057 78.2582 71.035Z" fill="white"/>
<path d="M14.5097 71.0237C14.5189 70.4623 14.6929 69.9159 15.01 69.4524C15.3271 68.9889 15.7734 68.6286 16.2936 68.4162C16.8137 68.2038 17.3848 68.1487 17.936 68.2577C18.4872 68.3666 18.9943 68.6349 19.3943 69.0292C19.7944 69.4236 20.0697 69.9266 20.1863 70.4758C20.3029 71.0251 20.2556 71.5965 20.0502 72.1192C19.8448 72.6418 19.4904 73.0927 19.0309 73.4159C18.5715 73.7391 18.0272 73.9204 17.4655 73.9374C17.0776 73.949 16.6913 73.882 16.33 73.7402C15.9688 73.5984 15.6401 73.3849 15.3638 73.1125C15.0874 72.8402 14.8693 72.5146 14.7225 72.1556C14.5757 71.7966 14.5033 71.4115 14.5097 71.0237ZM17.3947 68.8499C17.1139 68.8444 16.8348 68.8945 16.5735 68.9975C16.3123 69.1004 16.074 69.2541 15.8726 69.4497C15.6712 69.6453 15.5106 69.8789 15.4001 70.1369C15.2897 70.395 15.2315 70.6723 15.229 70.953C15.2174 71.5285 15.4307 72.0858 15.8236 72.5067C16.2166 72.9276 16.7582 73.1788 17.3335 73.207C18.4986 73.2262 19.4954 72.2129 19.4973 71.0084C19.5029 70.7282 19.4527 70.4498 19.3498 70.1891C19.2468 69.9285 19.093 69.6909 18.8974 69.4901C18.7018 69.2893 18.4683 69.1293 18.2103 69.0194C17.9524 68.9095 17.6751 68.8519 17.3947 68.8499Z" fill="white"/>
<path d="M62.0267 71.8495L63.2091 73.7613C62.7461 73.9525 62.4534 73.8474 62.22 73.465C61.939 72.9684 61.6279 72.4896 61.2883 72.0311C61.1112 71.8672 60.8771 71.7788 60.6359 71.7845C60.5517 71.7845 60.4101 72.0942 60.3833 72.2758C60.3412 72.5798 60.3833 72.8953 60.3661 73.205C60.3489 73.5147 60.456 73.9238 59.9605 73.8302C59.8017 73.7996 59.6066 73.4478 59.5989 73.2279C59.5626 72.1095 59.5817 70.9872 59.5817 69.8669C59.5817 68.0239 59.6333 67.9799 61.5082 68.2208C62.8475 68.3929 63.5764 69.5725 63.0177 70.7463C62.8264 71.144 62.4055 71.4365 62.0267 71.8495ZM60.3699 69.9243C60.3699 71.0867 60.3699 71.0867 61.0874 71.0886C61.9808 71.0886 62.4151 70.7291 62.4266 69.9759C62.4381 69.2226 62.0306 68.9052 61.1141 68.8422C60.1576 68.7752 60.4044 69.4233 60.3699 69.9243Z" fill="white"/>
<path d="M100.29 71.7613L101.515 73.7324C101.056 73.9733 100.769 73.8261 100.539 73.4609C100.282 73.0063 99.9981 72.5671 99.6896 72.1455C99.5097 71.92 99.1979 71.8014 98.9453 71.6351L98.7349 71.8071C98.7349 72.3214 98.7655 72.8415 98.7176 73.3519C98.7004 73.5278 98.49 73.6846 98.3675 73.8509C98.2336 73.6788 97.9849 73.5087 97.9849 73.3347C97.9569 71.7887 97.9569 70.2426 97.9849 68.6966C98.0087 68.589 98.0594 68.4892 98.1324 68.4066C98.2053 68.324 98.2981 68.2613 98.402 68.2244C98.9236 68.1753 99.4491 68.1836 99.9689 68.2492C100.857 68.362 101.343 68.7998 101.473 69.6257C101.591 70.379 101.388 71.0424 100.692 71.4745C100.573 71.5491 100.464 71.637 100.29 71.7613ZM98.7368 68.8763V70.1687C98.7368 71.096 98.974 71.2776 99.8981 71.0577C100.499 70.9143 100.755 70.5243 100.738 69.9106C100.721 69.2969 100.42 68.9681 99.8503 68.8859C99.4797 68.8591 99.1078 68.8559 98.7368 68.8763Z" fill="white"/>
<path d="M118.952 73.7325V68.3334C120.343 67.909 122.084 68.3162 122.721 69.2014C123.486 70.2587 123.444 71.6868 122.732 72.8243C122.221 73.6483 120.331 74.09 118.952 73.7325ZM119.66 68.9032C119.66 70.2262 119.65 71.5033 119.673 72.7804C119.69 72.8632 119.726 72.941 119.779 73.0073C119.831 73.0737 119.899 73.1269 119.975 73.1627C120.591 73.3788 121.697 72.9907 122.091 72.4573C122.621 71.7499 122.686 70.5301 122.242 69.7577C121.676 68.7827 120.762 68.798 119.66 68.9032Z" fill="white"/>
<path d="M9.81288 71.773L11.0392 73.7555L10.8613 73.9658C10.5743 73.7747 10.23 73.6122 10.0138 73.3521C9.68087 72.9526 9.46468 72.4574 9.13944 72.0502C9.05667 71.963 8.95697 71.8936 8.84644 71.8463C8.73591 71.7989 8.61687 71.7746 8.49662 71.7749C8.38757 71.7749 8.22878 72.1037 8.202 72.2987C8.15225 72.6486 8.22495 73.0176 8.16565 73.3655C8.13503 73.5414 7.93032 73.6886 7.80405 73.8473C7.69309 73.7001 7.49029 73.5529 7.48838 73.4038C7.4635 71.8303 7.45968 70.2569 7.48838 68.6834C7.51496 68.5764 7.56846 68.4779 7.64379 68.3972C7.71911 68.3166 7.81378 68.2565 7.91884 68.2227C8.41777 68.1717 8.92083 68.1762 9.41877 68.236C10.3084 68.3412 10.758 68.7408 10.9493 69.4979C11.0436 69.8674 11.0206 70.257 10.8834 70.6129C10.7463 70.9688 10.5019 71.2733 10.184 71.4843L9.81288 71.773ZM8.18477 69.8879C8.18477 71.0885 8.18477 71.0885 8.92708 71.0885C9.81862 71.0885 10.2453 70.7214 10.2395 69.9567C10.2338 69.192 9.83966 68.8995 8.9003 68.8421C7.94371 68.7809 8.25557 69.4634 8.19243 69.8879H8.18477Z" fill="white"/>
<path d="M55.9314 73.7365C55.39 73.9678 55.0896 73.8359 54.9863 73.3541C54.8734 72.8341 54.5616 72.6678 54.0565 72.7251C53.7717 72.7567 53.4842 72.7567 53.1994 72.7251C52.5719 72.6487 52.1567 72.8112 51.9769 73.4899C51.9291 73.6811 51.5694 73.7824 51.3532 73.9258L51.1504 73.7518C51.4508 72.8647 51.7454 71.9776 52.0553 71.0943C52.3366 70.2875 52.6121 69.475 52.943 68.6873C52.9962 68.5712 53.0758 68.469 53.1754 68.389C53.2751 68.309 53.392 68.2534 53.517 68.2266C53.6439 68.244 53.7646 68.2918 53.8689 68.3661C53.9732 68.4403 54.0579 68.5388 54.1158 68.6529C54.7338 70.3239 55.3154 72.0044 55.9314 73.7365ZM54.5386 72.0464L53.6299 69.3698L53.4079 69.3909C53.1248 70.2512 52.834 71.1115 52.5336 72.0445L54.5386 72.0464Z" fill="white"/>
<path d="M46.1 73.857C44.6651 73.857 44.6651 73.857 44.6651 72.4136C44.6651 71.2436 44.6938 70.0735 44.6517 68.9054C44.6307 68.3184 44.8545 68.154 45.3998 68.1884C45.9948 68.2247 46.5936 68.1884 47.1905 68.2133C47.3283 68.2133 47.4584 68.4045 47.5923 68.4962C47.4564 68.6148 47.3321 68.8079 47.1791 68.8365C46.8721 68.8875 46.5591 68.8907 46.2511 68.8461C45.5662 68.7543 45.4266 69.0621 45.4113 69.6949C45.394 70.3966 45.6255 70.6509 46.3047 70.5553C46.6133 70.5141 46.9264 70.5218 47.2326 70.5782C47.3627 70.6031 47.5043 70.8096 47.5406 70.9606C47.5578 71.0332 47.3493 71.2359 47.2288 71.2474C46.8244 71.2871 46.4176 71.2954 46.012 71.2722C45.5777 71.2474 45.3864 71.4194 45.4381 71.8458C45.4409 71.8935 45.4409 71.9414 45.4381 71.9892C45.417 73.2013 45.4189 73.1803 46.6166 73.2166C46.9456 73.2166 47.5579 73.4326 47.5502 73.4919C47.4775 74.1324 46.9437 73.7653 46.5936 73.8494C46.4299 73.8707 46.2643 73.8732 46.1 73.857Z" fill="white"/>
<path d="M106.139 71.272C106.111 71.3816 106.089 71.4927 106.074 71.6047C105.988 73.1724 105.988 73.159 107.555 73.2183C107.778 73.2183 107.995 73.4228 108.215 73.5318C107.989 73.6408 107.767 73.8282 107.535 73.8415C106.894 73.8817 106.248 73.853 105.605 73.8415C105.508 73.8256 105.414 73.7987 105.324 73.7612C105.308 73.4611 105.28 73.1399 105.278 72.8187C105.278 71.4804 105.289 70.1421 105.278 68.8172C105.278 68.3679 105.404 68.1634 105.884 68.1863C106.527 68.215 107.172 68.1729 107.815 68.2131C107.956 68.2131 108.086 68.4425 108.222 68.5668C108.084 68.6604 107.951 68.8268 107.809 68.8344C107.268 68.8669 106.724 68.8478 106.127 68.8478V70.5436C106.556 70.5185 106.987 70.5243 107.415 70.5608C107.66 70.5971 107.88 70.7979 108.111 70.926C107.889 71.0388 107.679 71.2242 107.447 71.2529C107.012 71.2867 106.575 71.293 106.139 71.272Z" fill="white"/>
<path d="M112.106 70.9642C112.106 70.2244 112.074 69.4845 112.127 68.7484C112.154 68.6295 112.211 68.5194 112.292 68.4281C112.373 68.3369 112.475 68.2675 112.59 68.2265C113.256 68.1758 113.925 68.1758 114.591 68.2265C114.741 68.2265 114.876 68.4463 115.018 68.563C114.859 68.6624 114.708 68.8268 114.54 68.8478C114.184 68.8899 113.824 68.8899 113.468 68.8478C112.703 68.7656 112.837 69.2876 112.831 69.7273C112.825 70.167 112.737 70.6297 113.443 70.5532C113.8 70.5117 114.16 70.5162 114.515 70.5666C114.677 70.5895 114.815 70.7826 114.962 70.8992C114.823 71.0216 114.695 71.23 114.54 71.251C114.159 71.2964 113.774 71.3022 113.392 71.2682C112.946 71.2396 112.778 71.4326 112.818 71.8552C112.822 71.9029 112.822 71.9508 112.818 71.9985C112.802 73.203 112.802 73.182 114.002 73.2183C114.344 73.2298 114.863 72.9487 114.959 73.5605C114.959 73.6083 114.356 73.7938 114.021 73.8454C113.688 73.8751 113.353 73.8789 113.019 73.8569C112.093 73.8569 112.091 73.8569 112.089 72.9009C112.089 72.2567 112.089 71.6143 112.089 70.97L112.106 70.9642Z" fill="white"/>
<path d="M37.936 71.0541C37.936 70.2894 37.9494 69.5247 37.936 68.7599C37.936 68.3278 38.1006 68.1653 38.531 68.1864C39.1509 68.2112 39.7727 68.173 40.3906 68.2112C40.5418 68.2112 40.6814 68.4177 40.8249 68.5267C40.6939 68.6539 40.5426 68.7586 40.3772 68.8364C40.165 68.8677 39.9497 68.8722 39.7363 68.8498C38.7396 68.8498 38.3971 69.2933 38.73 70.2512C38.7759 70.385 39.0323 70.5093 39.2045 70.5284C39.5871 70.5723 39.9697 70.5169 40.3524 70.5647C40.4383 70.5692 40.5193 70.6061 40.5792 70.6679C40.639 70.7297 40.6732 70.8118 40.6749 70.8978C40.6766 70.9838 40.6457 71.0672 40.5883 71.1313C40.531 71.1955 40.4514 71.2355 40.3658 71.2434C40.0348 71.2899 39.6995 71.2963 39.3671 71.2625C38.8831 71.2243 38.6611 71.3887 38.6975 71.903C38.7338 72.4026 38.7338 72.9042 38.6975 73.4038C38.6841 73.5586 38.4928 73.7001 38.3837 73.8473C38.2421 73.702 38.0967 73.5586 37.9628 73.4076C37.938 73.3808 37.9628 73.3158 37.9628 73.268L37.936 71.0541Z" fill="white"/>
<path d="M1.58626 68.8496V70.5473C2.0811 70.528 2.57661 70.5338 3.07088 70.5645C3.23733 70.5817 3.38273 70.8073 3.53578 70.9373C3.38464 71.0482 3.24115 71.2394 3.08236 71.2528C2.61172 71.2948 2.13534 71.2681 1.55182 71.2681C1.55182 71.985 1.5786 72.6446 1.5346 73.2984C1.52312 73.4896 1.34329 73.7879 1.1845 73.8261C0.767424 73.9294 0.759766 73.591 0.759766 73.287C0.759766 71.7862 0.771245 70.2835 0.759766 68.7827C0.759766 68.3621 0.878382 68.1709 1.33372 68.1881C1.95358 68.2148 2.57537 68.1747 3.19333 68.2148C3.3349 68.2148 3.465 68.4404 3.59892 68.5609C3.46308 68.6584 3.33299 68.8266 3.19141 68.8362C2.6672 68.8725 2.16021 68.8496 1.58626 68.8496Z" fill="white"/>
<path d="M91.237 71.0254C91.237 70.2606 91.2523 69.4959 91.237 68.7311C91.2255 68.3316 91.3728 68.171 91.7746 68.1844C92.3696 68.2035 92.9684 68.1652 93.5615 68.2054C93.7318 68.2188 93.8868 68.4253 94.0494 68.5419C93.9109 68.6629 93.754 68.761 93.5845 68.8325C93.3722 68.8629 93.1569 68.8673 92.9436 68.8459C92.0501 68.8459 91.6235 69.4978 92.0176 70.3065C92.0737 70.3728 92.1429 70.4268 92.221 70.465C92.299 70.5031 92.3842 70.5247 92.471 70.5283C92.8249 70.5627 93.1904 70.5053 93.5405 70.5608C93.6935 70.5837 93.816 70.794 93.9518 70.9183C93.834 71.0394 93.706 71.15 93.5692 71.249C93.5003 71.293 93.3778 71.2624 93.2879 71.2643C91.9487 71.3026 91.9487 71.3026 91.9487 72.6715C91.9774 72.9076 91.9704 73.1467 91.9277 73.3808C91.8722 73.5566 91.6732 73.6886 91.545 73.8377C91.4436 73.6847 91.26 73.5337 91.2542 73.375C91.2217 72.5969 91.237 71.8111 91.237 71.0254Z" fill="white"/>
<path d="M72.2894 71.3234C72.2894 70.7269 72.2645 70.1304 72.2894 69.5378C72.3181 69.0101 72.121 68.8132 71.5873 68.8342C71.3959 68.8342 71.1932 68.643 70.9961 68.5302C71.1874 68.4193 71.3787 68.2224 71.5815 68.2109C72.32 68.1727 73.0604 68.1804 73.7989 68.2109C73.9577 68.2109 74.1088 68.4021 74.2657 68.4996C74.1031 68.6163 73.9251 68.8495 73.7797 68.8304C73.0374 68.7425 72.9686 69.1497 72.982 69.7309C73.0062 70.92 73.0024 72.1098 72.9705 73.3003C72.9705 73.4915 72.7352 73.6635 72.6089 73.8452C72.5017 73.6693 72.3104 73.501 72.3009 73.3194C72.2626 72.656 72.2856 71.9811 72.2856 71.3215L72.2894 71.3234Z" fill="white"/>
</g>
<defs>
<clipPath id="clip0_750_795">
<rect width="143" height="73" fill="white" transform="translate(0 0.96582)"/>
</clipPath>
</defs>
</svg>
